<?xml version="1.0" encoding="iso-8859-1"?>
<!-- Generator: Adobe Illustrator 19.0.0, SVG Export Plug-In . SVG Version: 6.00 Build 0)  -->
<svg version="1.1" id="Capa_1" xmlns="http://www.w3.org/2000/svg" xmlns:xlink="http://www.w3.org/1999/xlink" x="0px" y="0px"
	 viewBox="0 0 512 512" style="enable-background:new 0 0 512 512;" xml:space="preserve">
<path style="fill:#994C0F;" d="M350,76.025V30h-27.437c-19.773,0-19.854-30,0-30H365c8.291,0,15,6.709,15,15v61.025
	C380,95.799,350,95.88,350,76.025z"/>
<path style="fill:#713708;" d="M482,188.437V161h-46.025c-19.773,0-19.854-30,0-30H497c8.291,0,15,6.709,15,15v42.437
	C512,208.21,482,208.291,482,188.437z"/>
<path style="fill:#FEDB41;" d="M419.074,92.963c-40.8-41.102-107.401-41.102-148.2,0l-38.699,38.699
	c-4.801,4.501-6,11.7-2.701,17.699l44.7,82.5c0.601,1.201,1.802,2.401,2.701,3.301c0.901,0.899,2.1,2.1,3.3,2.699l82.5,44.7
	c5.7,3.001,13.2,2.1,17.701-2.699l38.699-38.699C460.174,200.362,460.174,133.763,419.074,92.963z"/>
<path style="fill:#FCBF29;" d="M419.074,241.164l-38.699,38.699c-4.501,4.799-12.001,5.7-17.701,2.699l-82.5-44.7
	c-1.199-0.599-2.399-1.8-3.3-2.699l142.2-142.2C460.174,133.763,460.174,200.362,419.074,241.164z"/>
<path style="fill:#994C0F;" d="M71.075,462.263L25.499,507.5c-5.7,6-15.298,6-20.999,0c-6-5.7-6-15.3,0-21l45.274-45.537
	c6.899-6.899,15.901-5.099,21,0.3C76.175,446.363,77.975,455.362,71.075,462.263z"/>
<path style="fill:#713708;" d="M70.775,441.263c5.4,5.099,7.2,14.099,0.3,21L25.499,507.5c-5.7,6-15.298,6-20.999,0L70.775,441.263z
	"/>
<circle style="fill:#994C0F;" cx="344.93" cy="124.68" r="15"/>
<circle style="fill:#713708;" cx="387.35" cy="167.11" r="15"/>
<path style="fill:#994C0F;" d="M323.675,354.262c10.201-28.5,11.7-59.099,4.2-85.199c-0.3-1.501-0.901-3.001-1.5-4.501
	c-16.501-29.7-21.301-41.7-29.401-49.501c-8.099-8.699-19.799-13.2-51.899-30.298c-28.2-8.701-58.801-6-87.001,3.9l-14.7,27.599
	l76.201,76.199l76.199,76.201L323.675,354.262z"/>
<path style="fill:#713708;" d="M323.675,354.262c10.201-28.5,11.7-59.099,4.2-85.199c-0.3-1.501-0.901-3.001-1.5-4.501
	c-16.501-29.7-21.301-41.7-29.401-49.501l-77.399,77.401l76.199,76.201L323.675,354.262z"/>
<path style="fill:#E1E4FB;" d="M490.174,427.162c-29.099,29.401-76.8,29.401-105.899,0c-5.7-5.7-10.8-12.599-14.7-20.4
	c0-0.3-93.301-171-93.301-171l-171.599-93.6c-7.2-3.6-14.101-8.699-19.801-14.399c-29.399-29.099-29.399-76.8,0-105.901
	c29.101-29.099,76.501-29.099,105.901-0.298c5.7,5.999,10.8,12.9,14.7,20.7l93.001,171.299l171.899,93.3
	c7.5,3.602,14.099,8.701,19.799,14.401C519.275,350.662,519.275,398.063,490.174,427.162z"/>
<path style="fill:#C5C9F7;" d="M490.174,427.162c-29.099,29.401-76.8,29.401-105.899,0c-5.7-5.7-10.8-12.599-14.7-20.4
	c0-0.3-93.301-171-93.301-171l22.202-22.2l171.899,93.3c7.5,3.602,14.099,8.701,19.799,14.401
	C519.275,350.662,519.275,398.063,490.174,427.162z"/>
<path style="fill:#FEDB41;" d="M292.175,407.663c11.7-13.2,21-27.9,27.9-43.5c1.199-3.3,2.701-6.601,3.6-9.901l-82.8-82.8
	l-82.8-82.798c-3.3,0.899-6.599,2.098-9.899,3.3h-0.3c-15.601,6.599-30.601,16.199-43.801,27.9l-10.499,31.5l167.1,167.1
	L292.175,407.663z"/>
<path style="fill:#FCBF29;" d="M292.175,407.663c11.7-13.2,21-27.9,27.9-43.5c1.199-3.3,2.701-6.601,3.6-9.901l-82.8-82.8
	l-63.6,63.6l83.401,83.401L292.175,407.663z"/>
<path style="fill:#994C0F;" d="M198.275,313.763l-94.2-93.9c-0.78,0.779-8.55,7.648-10.604,10.244
	c-4.174,5.275-15.695,15.827-26.596,37.156l-6.301,35.999l74.101,74.101l74.399,74.099l36-6.299
	c16.332-8.908,31.247-19.982,44.03-34.091c3.424-3.779,3.046-3.384,3.07-3.409L198.275,313.763z"/>
<path style="fill:#713708;" d="M134.675,377.363l74.399,74.099l36-6.299c16.332-8.908,31.247-19.981,44.03-34.091
	c3.137-3.463,3.082-3.421,3.07-3.409l-93.9-93.9l-0.019-0.019l-63.6,63.6L134.675,377.363z"/>
<path style="fill:#FEDB41;" d="M140.075,467.663l-95.7-95.7v-42.301c2.701-14.099,6.899-27.599,12.299-40.199
	c0.901-3.001,2.1-6,3.602-9v-0.3c1.8-4.501,3.898-8.701,6.599-12.9c3.9,4.199,46.5,46.5,89.101,88.799
	c42.599,42.601,85.199,85.201,89.099,89.101c-5.7,3.3-15,8.099-22.5,10.499c-12.599,5.099-26.1,9-40.201,12.001L140.075,467.663
	L140.075,467.663z"/>
<path style="fill:#FCBF29;" d="M140.075,467.663l-47.701-47.701l63.602-63.9c42.599,42.601,85.199,85.201,89.099,89.101
	c-5.7,3.3-15,8.099-22.5,10.499c-12.599,5.099-26.1,9-40.201,12.001L140.075,467.663L140.075,467.663z"/>
<path style="fill:#994C0F;" d="M182.374,467.663c-3.898,0.899-7.5,1.5-11.398,2.1c-0.601,0.599-19.2,2.399-20.402,2.399
	c-30,2.401-62.699,0-92.999-5.7c-2.999-0.599-5.7-1.8-7.8-4.199c-2.401-2.1-3.6-4.801-4.2-7.8c-5.999-33.001-7.798-64.2-5.7-92.701
	c0-0.3,0-0.3,0-0.3c0-5.4,2.1-22.5,4.501-31.8c2.1,2.1,29.7,29.7,69,69.001C133.774,419.063,157.475,442.763,182.374,467.663z"/>
<path style="fill:#713708;" d="M113.374,398.664c20.4,20.4,44.101,44.099,69,69c-3.898,0.899-7.5,1.5-11.398,2.1
	c-0.601,0.599-19.2,2.399-20.402,2.399c-30,2.401-62.699,0-92.999-5.7c-2.999-0.599-5.7-1.8-7.8-4.199L113.374,398.664z"/>
<g>
</g>
<g>
</g>
<g>
</g>
<g>
</g>
<g>
</g>
<g>
</g>
<g>
</g>
<g>
</g>
<g>
</g>
<g>
</g>
<g>
</g>
<g>
</g>
<g>
</g>
<g>
</g>
<g>
</g>
</svg>
